<?xml version="1.0" encoding="UTF-8" standalone="no"?>
<!-- Created with Inkscape (http://www.inkscape.org/) -->

<svg
   width="128"
   height="128"
   viewBox="0 0 128 128"
   version="1.1"
   id="svg1"
   inkscape:version="1.3.2 (091e20e, 2023-11-25, custom)"
   sodipodi:docname="GitHubIcon_1.svg"
   inkscape:export-filename="GitHubIcon_1.png"
   inkscape:export-xdpi="96"
   inkscape:export-ydpi="96"
   xmlns:inkscape="http://www.inkscape.org/namespaces/inkscape"
   xmlns:sodipodi="http://sodipodi.sourceforge.net/DTD/sodipodi-0.dtd"
   xmlns="http://www.w3.org/2000/svg"
   xmlns:svg="http://www.w3.org/2000/svg">
  <sodipodi:namedview
     id="namedview1"
     pagecolor="#3f3f3f"
     bordercolor="#000000"
     borderopacity="0.25"
     inkscape:showpageshadow="2"
     inkscape:pageopacity="0.0"
     inkscape:pagecheckerboard="0"
     inkscape:deskcolor="#818181"
     inkscape:document-units="px"
     inkscape:zoom="3.3708334"
     inkscape:cx="125.93325"
     inkscape:cy="45.834363"
     inkscape:window-width="1920"
     inkscape:window-height="1009"
     inkscape:window-x="1072"
     inkscape:window-y="457"
     inkscape:window-maximized="1"
     inkscape:current-layer="layer1" />
  <defs
     id="defs1" />
  <g
     inkscape:label="Layer 1"
     inkscape:groupmode="layer"
     id="layer1">
    <path
       style="fill:#ffffff;fill-opacity:1;stroke-width:13.7667"
       d="m 81.755569,123.55784 c -0.199005,-0.0925 -0.760806,-0.41353 -1.243821,-0.71611 l -0.87925,-0.55114 -0.06657,-3.21228 c -0.118363,-5.6721 -0.272245,-15.31359 -0.275206,-17.95955 l -0.0013,-2.568367 -1.697022,-2.986862 c -0.934512,-1.642861 -1.684521,-3.000908 -1.669576,-3.017923 0.01487,-0.01487 1.270085,-0.268548 2.789112,-0.557809 3.259324,-0.621429 4.524527,-0.927927 6.399693,-1.543513 6.992564,-2.295073 12.300612,-6.647968 14.949741,-12.259553 1.45741,-3.087695 2.37852,-6.170578 2.96134,-9.911588 0.21158,-1.350722 0.24192,-1.96786 0.24636,-4.807499 0.004,-2.627761 -0.0296,-3.496061 -0.18717,-4.48702 -0.74098,-4.746688 -2.08601,-8.222406 -4.470446,-11.565848 -1.231981,-1.726465 -1.340436,-2.151478 -0.954262,-3.693216 0.396532,-1.573919 0.481609,-2.476177 0.48013,-4.985422 -0.003,-3.28766 -0.238215,-5.076861 -0.96085,-7.318003 -0.618471,-1.916372 -0.870003,-2.136758 -2.430754,-2.136758 -3.108924,0 -8.140878,1.89588 -13.303334,5.012129 -1.079291,0.651761 -2.02416,1.184639 -2.10021,1.184639 -0.07915,0 -0.97143,-0.214543 -1.990945,-0.476431 -3.461733,-0.889755 -5.739942,-1.074039 -13.230244,-1.072706 -7.229152,0.0012 -9.362284,0.173855 -13.227726,1.06479 l -2.063825,0.47643 -1.995826,-1.154306 c -3.631517,-2.103171 -5.446315,-2.992185 -7.978274,-3.907979 -2.025563,-0.731662 -3.610359,-1.049034 -4.967813,-0.99503 -1.247742,0.0518 -1.608763,0.18051 -2.087116,0.746309 -0.973944,1.151642 -1.408206,3.432661 -1.511482,7.940394 -0.06657,2.912731 0.03699,4.636755 0.349926,5.72078 0.09247,0.317373 0.190864,0.846328 0.223418,1.172728 0.06657,0.744974 -0.09247,1.109547 -1.247817,2.662383 -2.633458,3.559092 -3.581656,5.816066 -4.06245,9.668341 -0.196047,1.583683 -0.295178,5.50254 -0.199004,8.083249 0.205661,5.639328 0.938432,8.971969 2.764177,12.608074 2.373124,4.725087 5.652572,8.099598 10.050445,10.341703 3.227072,1.645385 6.632361,2.707733 12.011947,3.747813 1.263573,0.244875 2.297957,0.48309 2.297957,0.530436 0,0.03699 -0.368418,0.631787 -0.81999,1.297753 -1.004276,1.483885 -1.605138,2.721268 -2.170714,4.469043 -0.467551,1.439943 -0.930517,2.363129 -1.310923,2.606749 -0.318851,0.2042 -2.648992,0.77399 -3.978259,0.97136 -2.024976,0.30183 -4.278324,0.13981 -5.92526,-0.42391 -2.184919,-0.75023 -4.190955,-2.513162 -7.886983,-6.937597 -0.739797,-0.88709 -1.646566,-1.909418 -2.013138,-2.272437 -1.329637,-1.317507 -3.128751,-2.383997 -4.854476,-2.87907 -0.827833,-0.236735 -1.118723,-0.272245 -2.002336,-0.231556 -1.159558,0.0518 -1.790976,0.283341 -2.435783,0.891086 -0.32477,0.306276 -0.354363,0.375078 -0.248571,0.605154 0.06659,0.142048 0.939763,1.002945 1.941599,1.907716 3.319174,2.999141 4.743728,4.775467 6.547058,8.164044 1.35605,2.5466 2.803388,4.72361 3.844357,5.77989 1.512073,1.53412 3.896514,2.55911 7.104351,3.05396 1.062202,0.16425 5.73025,0.1879 8.476526,0.037 l 1.799632,-0.0925 -0.03699,5.75563 c -0.0518,6.64145 -0.0518,6.63235 -0.872591,7.37497 -0.684311,0.62143 -1.28858,0.89109 -2.001077,0.89109 -1.848754,0 -7.847108,-2.55319 -12.324067,-5.24539 -6.9445,-4.17636 -12.692725,-9.13648 -17.281319,-14.91185 C 5.5206275,90.218142 0.92138103,73.171801 3.3516144,56.457777 4.6231056,47.713149 7.8704452,39.165453 12.697256,31.858622 21.161649,19.045107 33.458045,10.145416 48.373473,6.0373943 53.563226,4.6080306 56.026899,4.3222471 63.116158,4.3274267 c 6.018105,0.00431 9.614483,0.2818621 13.934457,1.073964 6.513622,1.1938097 14.191831,4.4451472 20.625481,8.7341233 14.851574,9.900488 24.629924,25.382158 27.068894,42.857063 0.43796,3.148874 0.54374,4.795813 0.53931,8.493172 -0.005,4.499596 -0.31293,7.728442 -1.12664,11.804949 -3.00757,15.095495 -11.63805,28.590152 -24.09387,37.674262 -4.210924,3.07099 -10.950702,6.63429 -15.512146,8.20162 -1.519617,0.5223 -2.253127,0.62291 -2.784598,0.38174 z"
       id="path6"
       inkscape:label="GitHub Icon" />
  </g>
</svg>
