<?xml version="1.0" encoding="UTF-8" standalone="no"?>
<!-- Created with Inkscape (http://www.inkscape.org/) -->

<svg
   width="128"
   height="128"
   viewBox="0 0 128 128"
   version="1.1"
   id="svg1"
   inkscape:version="1.3.2 (091e20e, 2023-11-25, custom)"
   sodipodi:docname="NexusModsIcon_1.svg"
   inkscape:export-filename="GitHubIcon_1.png"
   inkscape:export-xdpi="96"
   inkscape:export-ydpi="96"
   xml:space="preserve"
   xmlns:inkscape="http://www.inkscape.org/namespaces/inkscape"
   xmlns:sodipodi="http://sodipodi.sourceforge.net/DTD/sodipodi-0.dtd"
   xmlns="http://www.w3.org/2000/svg"
   xmlns:svg="http://www.w3.org/2000/svg"><path
     id="rect1"
     style="fill:#ffffff;fill-rule:evenodd;stroke-width:10.8269;paint-order:stroke fill markers"
     d="M 89.653863,8.673068 C 85.9353,8.4718992 81.698669,9.9991754 76.361588,13.434131 l -1.000433,0.643902 -1.056665,-0.22183 C 64.927795,11.886775 54.91169,12.76057 45.722898,16.349766 L 44.074133,16.993878 42.560281,16.49905 C 36.243914,14.434718 28.743163,14.014275 25.039616,15.517028 22.088705,16.714381 17.393053,21.651719 13.196915,27.969583 8.4392762,35.13287 7.5592792,39.352301 9.6517503,44.967727 c 0.8467377,2.272334 2.2295717,4.968236 3.7310387,7.274069 l 0.788746,1.211257 -0.253543,1.387188 c -0.451155,2.469678 -0.810399,6.463097 -0.811589,9.020323 -0.0024,5.374326 1.211383,12.223825 3.019464,17.037468 l 0.423351,1.127303 -0.944395,2.799964 c -1.438688,4.265913 -1.937569,6.879739 -2.03278,10.649642 -0.153763,6.087689 0.588213,8.267279 3.911834,11.490399 6.410345,6.21651 13.3642,10.82126 18.038318,11.94484 2.291165,0.55075 3.447234,0.56952 6.339625,0.10252 2.774009,-0.44784 6.695707,-2.27498 10.248493,-4.7746 l 0.840769,-0.59145 1.865938,0.33198 c 9.500144,1.69135 18.792894,0.82349 27.417286,-2.5608 l 0.541342,-0.21252 1.447668,0.52929 c 4.387792,1.60382 7.9418,2.26683 12.19415,2.27512 5.749894,0.0113 7.572424,-0.68898 11.013764,-4.23135 6.31583,-6.50122 10.97208,-13.957012 11.84017,-18.959014 0.65951,-3.800228 -0.93857,-8.77339 -4.63483,-14.423593 l -0.97166,-1.485523 0.33411,-1.816666 c 1.66903,-9.074627 0.89534,-18.524601 -2.18525,-26.690695 l -0.47958,-1.271317 0.58701,-1.706065 c 1.66769,-4.845303 2.14222,-7.553062 2.1292,-12.153767 -0.0173,-6.115143 -1.0044,-7.977269 -6.91436,-13.042744 C 100.88145,12.868167 95.47094,9.6855009 91.217411,8.8646572 90.705625,8.7658969 90.185085,8.7018013 89.653863,8.673068 Z M 64.355424,22.757474 c 3.822589,0.03498 7.6591,0.602969 11.420412,1.711573 0.812889,0.239585 1.497817,0.454781 1.521895,0.478112 0.02411,0.02335 -0.370634,0.47226 -0.877147,0.99768 -3.024327,3.137265 -6.129875,8.015381 -8.916706,14.006591 -0.563154,1.210704 -1.065133,2.215093 -1.115467,2.231981 -0.05034,0.01687 -1.108061,-0.504357 -2.350603,-1.158391 -1.242543,-0.654033 -2.276864,-1.171648 -2.298375,-1.150138 -0.02152,0.02154 0.691988,2.759766 1.585536,6.084808 0.893538,3.325052 2.0512,7.636614 2.572433,9.58133 l 0.947775,3.535855 0.819406,-0.306192 c 0.450732,-0.168384 1.867131,-0.704612 3.147404,-1.191596 3.181586,-1.210199 7.961421,-3.020422 11.151648,-4.223311 1.458904,-0.550094 2.689399,-1.032991 2.734407,-1.073161 0.045,-0.04022 -1.091768,-0.697921 -2.526121,-1.461631 -1.434361,-0.763699 -2.632135,-1.451479 -2.661668,-1.528447 -0.07097,-0.184947 1.081262,-2.434016 1.941219,-3.789181 2.032456,-3.202872 4.283445,-5.996062 7.111036,-8.823235 4.39942,-4.398805 7.679165,-6.541657 11.617492,-7.590631 1.07502,-0.286341 3.74975,-0.361811 3.99959,-0.112926 0.26355,0.262563 0.18798,4.98866 -0.10594,6.621294 -0.39732,2.207031 -1.25515,4.87337 -2.62635,8.163693 l -0.65448,1.570524 0.50413,1.06302 c 4.31212,9.089344 5.10721,20.005263 2.1478,29.486859 l -0.39859,1.277225 -1.20322,-1.085855 c -3.545327,-3.199441 -8.659158,-6.334228 -14.844823,-9.099626 -0.53593,-0.239594 -0.992608,-0.45115 -1.014595,-0.470077 -0.02199,-0.01896 0.505439,-1.064432 1.171921,-2.323331 0.666476,-1.25889 1.188579,-2.311951 1.16029,-2.340247 -0.04712,-0.04708 -2.644922,0.630521 -10.195626,2.659344 -7.820238,2.101244 -8.850011,2.382648 -8.899589,2.432234 -0.02949,0.02954 0.542857,1.579464 1.271948,3.444496 2.109762,5.396856 4.625769,11.842809 5.116309,13.108093 0.248186,0.640139 0.477952,1.163891 0.510476,1.163891 0.03252,0 0.422768,-0.691849 0.867415,-1.537549 1.640016,-3.119233 1.78476,-3.391802 1.869535,-3.522521 0.168725,-0.260161 3.225933,1.417418 5.543474,3.041875 9.601198,6.729853 15.595559,15.008964 15.053747,20.790914 l -0.07615,0.81328 -0.505607,0.0859 c -0.763961,0.13 -4.178323,0.0897 -5.160923,-0.0609 -3.026383,-0.46386 -5.704034,-1.28482 -9.572877,-2.93528 l -1.452746,-0.6198 -1.19983,0.56546 c -6.153249,2.89969 -13.088849,4.23739 -19.930262,3.84393 -3.165424,-0.18204 -6.527687,-0.79052 -9.62723,-1.74224 l -1.137023,-0.34911 0.787058,-0.87736 c 3.120997,-3.478329 6.029543,-8.159512 8.68474,-13.977821 0.461969,-1.012309 0.849669,-1.853949 0.861491,-1.870379 0.0118,-0.01649 1.053744,0.512964 2.315502,1.176575 1.261762,0.663611 2.319349,1.181389 2.350184,1.150558 0.05352,-0.05356 -4.987602,-19.001807 -5.079943,-19.094147 -0.02448,-0.02449 -1.013663,0.325883 -2.198141,0.778386 -1.184478,0.452512 -3.663878,1.399187 -5.509845,2.103836 -1.845976,0.704659 -4.842315,1.848878 -6.658505,2.542616 -1.816204,0.693746 -3.336486,1.295256 -3.378322,1.336648 -0.04182,0.04136 0.542824,0.411217 1.299222,0.821958 0.756407,0.410731 1.947803,1.059637 2.647507,1.441959 l 1.272155,0.695072 -0.699523,1.372806 c -3.850987,7.558025 -12.067877,15.836607 -18.068764,18.204278 -2.360414,0.93131 -5.821817,1.314985 -6.081219,0.674136 -0.325553,-0.80431 -0.136213,-5.038846 0.328185,-7.341105 0.418,-2.072261 2.166862,-7.017662 3.193289,-9.029625 0.290592,-0.569622 0.31348,-0.468724 -0.546634,-2.404529 -3.888558,-8.751814 -4.593438,-18.385457 -2.035524,-27.819485 l 0.342778,-1.263903 1.050334,0.971453 c 3.669997,3.394757 7.791463,5.929252 15.659791,9.630182 l 0.559109,0.263059 -1.229865,2.324808 c -0.676407,1.278627 -1.215853,2.338607 -1.19878,2.355686 0.01709,0.01706 3.022993,-0.772258 6.679665,-1.75429 12.532412,-3.365699 12.49767,-3.356044 12.461225,-3.526543 -0.108808,-0.508999 -6.788113,-17.846399 -6.849458,-17.779075 -0.04106,0.04507 -0.692877,1.259623 -1.448306,2.698895 l -1.373439,2.616837 -0.34448,-0.145701 C 44.140128,47.418451 36.857358,41.563021 33.083607,36.836619 29.705069,32.605188 27.956276,28.24116 28.414532,25.185285 c 0.09179,-0.612137 0.08978,-0.611422 2.067463,-0.697615 3.726045,-0.162379 7.700903,0.718735 12.580486,2.788766 1.237086,0.524792 0.991239,0.550695 2.707129,-0.286112 5.882321,-2.868688 12.214811,-4.2911 18.5858,-4.232832 z" /><sodipodi:namedview
     id="namedview1"
     pagecolor="#3f3f3f"
     bordercolor="#000000"
     borderopacity="0.25"
     inkscape:showpageshadow="2"
     inkscape:pageopacity="0.0"
     inkscape:pagecheckerboard="0"
     inkscape:deskcolor="#818181"
     inkscape:document-units="px"
     inkscape:zoom="4.7670783"
     inkscape:cx="106.24957"
     inkscape:cy="63.665831"
     inkscape:window-width="1920"
     inkscape:window-height="1009"
     inkscape:window-x="1072"
     inkscape:window-y="457"
     inkscape:window-maximized="1"
     inkscape:current-layer="svg1" /><defs
     id="defs1" /></svg>
