<?xml version="1.0" encoding="UTF-8" standalone="no"?>
<!-- Created with Inkscape (http://www.inkscape.org/) -->

<svg
   width="128"
   height="128"
   viewBox="0 0 128 128"
   version="1.1"
   id="svg1"
   inkscape:version="1.3.2 (091e20e, 2023-11-25, custom)"
   sodipodi:docname="PatreonIcon_1.svg"
   inkscape:export-filename="PatreonIcon_1.png"
   inkscape:export-xdpi="96"
   inkscape:export-ydpi="96"
   xmlns:inkscape="http://www.inkscape.org/namespaces/inkscape"
   xmlns:sodipodi="http://sodipodi.sourceforge.net/DTD/sodipodi-0.dtd"
   xmlns="http://www.w3.org/2000/svg"
   xmlns:svg="http://www.w3.org/2000/svg">
  <sodipodi:namedview
     id="namedview1"
     pagecolor="#3f3f3f"
     bordercolor="#000000"
     borderopacity="0.25"
     inkscape:showpageshadow="2"
     inkscape:pageopacity="0.0"
     inkscape:pagecheckerboard="0"
     inkscape:deskcolor="#818181"
     inkscape:document-units="px"
     inkscape:zoom="3.3708334"
     inkscape:cx="112.28677"
     inkscape:cy="59.184177"
     inkscape:window-width="1920"
     inkscape:window-height="1009"
     inkscape:window-x="1072"
     inkscape:window-y="457"
     inkscape:window-maximized="1"
     inkscape:current-layer="layer1" />
  <defs
     id="defs1" />
  <g
     inkscape:label="Layer 1"
     inkscape:groupmode="layer"
     id="layer1">
    <path
       style="display:inline;fill:#ffffff;stroke-width:1.39458"
       d="M 34.153373,118.69246 C 27.85044,116.99762 22.671511,111.63363 19.397084,103.40919 15.875918,94.565565 14.021135,83.381208 13.583842,68.355514 13.033881,49.493614 16.147703,36.524258 23.610013,26.581389 30.434814,17.487775 40.35129,12.211711 55.513211,9.6077923 c 6.19294,-1.064399 17.753206,-1.150311 23.911736,-0.179843 13.330995,2.1023397 21.673473,6.2588597 28.109203,14.0050687 2.51482,3.027167 5.22048,8.194875 6.08779,11.628121 1.90309,7.533219 0.5938,16.25977 -3.54324,23.591278 -2.14069,3.794662 -7.2184,8.8853 -11.25958,11.288111 -3.193792,1.898854 -7.477695,3.492331 -14.987123,5.574455 -8.119292,2.251128 -12.769364,4.949804 -16.663242,9.67063 -2.302927,2.792095 -3.701836,5.355213 -8.11394,14.866807 -3.512249,7.57133 -6.326267,12.04802 -9.258753,14.72811 -4.267405,3.90013 -10.183133,5.37915 -15.642689,3.91098 z"
       id="path7"
       inkscape:label="Patreon Icon" />
  </g>
</svg>
