<?xml version="1.0" encoding="UTF-8" standalone="no"?>
<!-- Created with Inkscape (http://www.inkscape.org/) -->

<svg
   width="128"
   height="128"
   viewBox="0 0 128 128"
   version="1.1"
   id="svg1"
   inkscape:version="1.3.2 (091e20e, 2023-11-25, custom)"
   sodipodi:docname="SoundcloudIcon_1.svg"
   inkscape:export-filename="SoundcloudIcon_1.png"
   inkscape:export-xdpi="96"
   inkscape:export-ydpi="96"
   xml:space="preserve"
   xmlns:inkscape="http://www.inkscape.org/namespaces/inkscape"
   xmlns:sodipodi="http://sodipodi.sourceforge.net/DTD/sodipodi-0.dtd"
   xmlns="http://www.w3.org/2000/svg"
   xmlns:svg="http://www.w3.org/2000/svg"><sodipodi:namedview
     id="namedview1"
     pagecolor="#3f3f3f"
     bordercolor="#000000"
     borderopacity="0.25"
     inkscape:showpageshadow="2"
     inkscape:pageopacity="0.0"
     inkscape:pagecheckerboard="0"
     inkscape:deskcolor="#818181"
     inkscape:document-units="px"
     inkscape:zoom="4"
     inkscape:cx="86.625"
     inkscape:cy="70.125"
     inkscape:window-width="1920"
     inkscape:window-height="1009"
     inkscape:window-x="1072"
     inkscape:window-y="457"
     inkscape:window-maximized="1"
     inkscape:current-layer="layer1"
     showgrid="false"><inkscape:grid
       id="grid3"
       units="px"
       originx="0"
       originy="0"
       spacingx="1"
       spacingy="1"
       empcolor="#0099e5"
       empopacity="0.30196078"
       color="#0099e5"
       opacity="0.14901961"
       empspacing="5"
       dotted="false"
       gridanglex="30"
       gridanglez="30"
       visible="false" /></sodipodi:namedview><defs
     id="defs1" /><g
     inkscape:label="Layer 1"
     inkscape:groupmode="layer"
     id="layer1"><path
       id="rect1"
       style="fill:#ffffff;fill-rule:evenodd;stroke-width:313.992;paint-order:stroke fill markers"
       d="m 72.41072,29.265041 c -5.589833,0.03557 -11.024194,1.897273 -15.527951,5.316943 v 59.661693 h 15.70829 26.615821 11.11895 c 8.41745,-2.554481 14.20925,-10.515176 14.24067,-19.576308 -5.4e-4,-11.311577 -8.87902,-20.483637 -19.83124,-20.48421 -1.99246,0.0065 -3.96936,0.322629 -5.870398,0.939009 C 98.092597,40.617675 86.475648,29.266333 72.41072,29.265041 Z m -25.881988,9.918741 c -1.721338,0 -3.109347,1.388 -3.109347,3.109324 v 49.338748 c 0,1.721305 1.388009,3.103106 3.109347,3.103106 h 1.237504 c 1.721306,0 3.103107,-1.381801 3.103107,-3.103106 V 42.293106 c 0,-1.721324 -1.381801,-3.109324 -3.103107,-3.109324 z m -26.311121,5.404004 c -2.063389,0 -3.724962,1.778174 -3.724962,3.986153 v 42.174879 c 0,2.207973 1.661573,3.986143 3.724962,3.986143 2.06342,0 3.724996,-1.77817 3.724996,-3.986143 V 48.573939 c 0,-2.207979 -1.661576,-3.986153 -3.724996,-3.986153 z m 13.463385,3.283446 c -2.06342,0 -3.724965,1.661555 -3.724965,3.72497 v 39.413794 c 0,2.06339 1.661545,3.724964 3.724965,3.724964 2.063421,0 3.724963,-1.661574 3.724963,-3.724964 V 51.596202 c 0,-2.063415 -1.661542,-3.72497 -3.724963,-3.72497 z M 6.953256,63.902889 c -1.9532247,0 -3.5197583,1.572742 -3.5197583,3.525999 v 16.728141 c 0,1.953255 1.5665336,3.525966 3.5197583,3.525966 1.953224,0 3.525968,-1.572711 3.525968,-3.525966 V 67.428888 c 0,-1.953257 -1.572744,-3.525999 -3.525968,-3.525999 z" /></g></svg>
