<?xml version="1.0" encoding="UTF-8" standalone="no"?>
<!-- Created with Inkscape (http://www.inkscape.org/) -->

<svg
   width="128"
   height="128"
   viewBox="0 0 128 128"
   version="1.1"
   id="svg1"
   inkscape:version="1.3.2 (091e20e, 2023-11-25, custom)"
   sodipodi:docname="SoundcloudIcon_2.svg"
   inkscape:export-filename="SoundcloudIcon_2.png"
   inkscape:export-xdpi="96"
   inkscape:export-ydpi="96"
   xml:space="preserve"
   xmlns:inkscape="http://www.inkscape.org/namespaces/inkscape"
   xmlns:sodipodi="http://sodipodi.sourceforge.net/DTD/sodipodi-0.dtd"
   xmlns="http://www.w3.org/2000/svg"
   xmlns:svg="http://www.w3.org/2000/svg"><sodipodi:namedview
     id="namedview1"
     pagecolor="#3f3f3f"
     bordercolor="#000000"
     borderopacity="0.25"
     inkscape:showpageshadow="2"
     inkscape:pageopacity="0.0"
     inkscape:pagecheckerboard="0"
     inkscape:deskcolor="#818181"
     inkscape:document-units="px"
     inkscape:zoom="0.70710678"
     inkscape:cx="68.589357"
     inkscape:cy="142.12846"
     inkscape:window-width="1920"
     inkscape:window-height="1009"
     inkscape:window-x="1072"
     inkscape:window-y="457"
     inkscape:window-maximized="1"
     inkscape:current-layer="layer1"
     showgrid="true"><inkscape:grid
       id="grid3"
       units="px"
       originx="0"
       originy="0"
       spacingx="1"
       spacingy="1"
       empcolor="#0099e5"
       empopacity="0.30196078"
       color="#0099e5"
       opacity="0.14901961"
       empspacing="5"
       dotted="false"
       gridanglex="30"
       gridanglez="30"
       visible="true" /></sodipodi:namedview><defs
     id="defs1" /><g
     inkscape:label="Layer 1"
     inkscape:groupmode="layer"
     id="layer1"><path
       id="path4"
       style="display:inline;fill:#ffffff;fill-rule:evenodd;stroke-width:2413.09;paint-order:stroke fill markers"
       d="M 64 3.671875 A 60.327362 60.327362 0 0 0 3.671875 64 A 60.327362 60.327362 0 0 0 64 124.32812 A 60.327362 60.327362 0 0 0 124.32812 64 A 60.327362 60.327362 0 0 0 64 3.671875 z M 71.082031 34.435547 C 82.925386 34.436635 92.707137 43.995494 93.357422 56.208984 C 94.958188 55.689963 96.623033 55.423469 98.300781 55.417969 C 107.52308 55.418451 114.99955 63.141115 115 72.666016 C 114.97354 80.295931 110.09572 86.999393 103.00781 89.150391 L 93.646484 89.150391 L 71.234375 89.150391 L 58.007812 89.150391 L 58.007812 38.912109 C 61.800196 36.03258 66.375119 34.465497 71.082031 34.435547 z M 49.289062 42.787109 L 50.330078 42.787109 C 51.779502 42.787109 52.943359 43.956811 52.943359 45.40625 L 52.943359 86.951172 C 52.943359 88.400595 51.779502 89.564453 50.330078 89.564453 L 49.289062 89.564453 C 47.839612 89.564453 46.669922 88.400595 46.669922 86.951172 L 46.669922 45.40625 C 46.669922 43.956811 47.839612 42.787109 49.289062 42.787109 z M 27.132812 47.337891 C 28.870314 47.337891 30.269531 48.836086 30.269531 50.695312 L 30.269531 86.207031 C 30.269531 88.066252 28.870314 89.564453 27.132812 89.564453 C 25.395338 89.564453 23.996094 88.066252 23.996094 86.207031 L 23.996094 50.695312 C 23.996094 48.836086 25.395338 47.337891 27.132812 47.337891 z M 38.470703 50.103516 C 40.208204 50.103516 41.607422 51.502738 41.607422 53.240234 L 41.607422 86.427734 C 41.607422 88.16521 40.208204 89.564453 38.470703 89.564453 C 36.733203 89.564453 35.333984 88.16521 35.333984 86.427734 L 35.333984 53.240234 C 35.333984 51.502738 36.733203 50.103516 38.470703 50.103516 z M 15.962891 63.601562 C 17.607601 63.601562 18.933594 64.927528 18.933594 66.572266 L 18.933594 80.658203 C 18.933594 82.302938 17.607601 83.626953 15.962891 83.626953 C 14.31818 83.626953 13 82.302938 13 80.658203 L 13 66.572266 C 13 64.927528 14.31818 63.601562 15.962891 63.601562 z " /></g></svg>
