<?xml version="1.0" encoding="UTF-8" standalone="no"?>
<!-- Created with Inkscape (http://www.inkscape.org/) -->

<svg
   width="128"
   height="128"
   viewBox="0 0 128 128"
   version="1.1"
   id="svg1"
   inkscape:version="1.3.2 (091e20e, 2023-11-25, custom)"
   sodipodi:docname="SpotifyIcon_1.svg"
   inkscape:export-filename="SpotifyIcon_1.png"
   inkscape:export-xdpi="96"
   inkscape:export-ydpi="96"
   xml:space="preserve"
   xmlns:inkscape="http://www.inkscape.org/namespaces/inkscape"
   xmlns:sodipodi="http://sodipodi.sourceforge.net/DTD/sodipodi-0.dtd"
   xmlns="http://www.w3.org/2000/svg"
   xmlns:svg="http://www.w3.org/2000/svg"><sodipodi:namedview
     id="namedview1"
     pagecolor="#3f3f3f"
     bordercolor="#000000"
     borderopacity="0.25"
     inkscape:showpageshadow="2"
     inkscape:pageopacity="0.0"
     inkscape:pagecheckerboard="0"
     inkscape:deskcolor="#818181"
     inkscape:document-units="px"
     inkscape:zoom="0.99999999"
     inkscape:cx="-18.5"
     inkscape:cy="69.500001"
     inkscape:window-width="1920"
     inkscape:window-height="1009"
     inkscape:window-x="1072"
     inkscape:window-y="457"
     inkscape:window-maximized="1"
     inkscape:current-layer="layer1"
     showgrid="true"><inkscape:grid
       id="grid3"
       units="px"
       originx="0"
       originy="0"
       spacingx="1"
       spacingy="1"
       empcolor="#0099e5"
       empopacity="0.30196078"
       color="#0099e5"
       opacity="0.14901961"
       empspacing="5"
       dotted="false"
       gridanglex="30"
       gridanglez="30"
       visible="true" /></sodipodi:namedview><defs
     id="defs1" /><g
     inkscape:label="Layer 1"
     inkscape:groupmode="layer"
     id="layer1"><path
       d="m 43.681777,29.478431 c 4.428305,-0.137511 8.878478,-0.196689 10.846192,-0.100992 13.623212,0.66215 25.978974,2.720911 38.045942,6.337376 8.076319,2.420462 14.406239,4.830703 21.595899,8.225708 3.95465,1.867398 4.87757,2.568245 5.84652,4.434612 0.86514,1.666375 1.13471,2.984254 0.92226,4.511339 -0.23551,1.692995 -0.88751,3.327348 -2.14806,4.435629 -1.45741,1.28136 -3.11435,2.319736 -5.20911,2.368895 -1.09984,0.02568 -2.66162,-0.557345 -5.90473,-2.061543 -16.524633,-7.664312 -33.513646,-11.864474 -52.2555,-12.919544 -4.483259,-0.252334 -17.048951,0.08441 -21.304032,0.570494 -5.809659,0.663661 -11.08525,1.538402 -16.193301,2.685409 -3.003511,0.674442 -3.686284,0.733593 -4.945968,0.431565 -3.0361653,-0.727921 -5.2309368,-3.017119 -5.8624847,-6.116865 -0.607806,-2.983196 1.0944023,-6.567693 3.8167997,-8.031388 2.114699,-1.136974 12.428595,-3.102594 22.031711,-4.200683 1.881179,-0.215348 6.289557,-0.432448 10.717862,-0.569959 z m 0.879182,27.948074 c 3.115289,-0.09832 6.224352,-0.136867 7.962256,-0.07264 12.069562,0.44632 23.224792,2.354247 34.5447,5.912151 5.744726,1.805585 10.174977,3.553811 16.254725,6.408339 4.90933,2.304982 6.04989,3.338315 6.61587,6.003152 0.94166,4.433702 -3.39617,7.940307 -6.91434,7.263631 -0.34565,-0.07758 -2.5281,-1.02916 -4.849847,-2.114261 C 93.439931,78.614159 90.119995,77.26581 85.69849,75.76335 76.414945,72.608694 66.401335,70.618768 56.352262,69.930869 52.151646,69.643315 45.779871,69.595106 42.339089,69.825061 34.32518,70.360562 29.489776,71.066572 21.834256,72.816644 l -3.34052,0.764199 -1.170245,-0.271422 c -3.811525,-0.881296 -5.8823,-4.821674 -4.408513,-8.390533 0.480263,-1.162965 1.613997,-2.465554 2.653245,-3.047992 1.955836,-1.096163 13.11902,-3.23121 20.998065,-4.014444 1.757567,-0.174496 4.879376,-0.331563 7.994667,-0.429947 z m 0.690002,25.019602 c 2.486584,-0.07718 4.985818,-0.09925 6.602867,-0.03678 13.823615,0.533708 26.710174,3.511928 39.101354,9.034223 3.475251,1.548782 6.893946,3.354621 7.645771,4.039684 1.914107,1.744146 2.114487,4.43912 0.480323,6.454266 -0.37905,0.46742 -1.002942,0.97032 -1.47778,1.19217 -1.815096,0.84806 -2.804139,0.73475 -5.330797,-0.61006 C 85.586497,98.960807 77.123806,95.870438 69.348638,94.148377 61.072776,92.31541 54.160301,91.67275 45.613307,91.939571 c -7.176465,0.224043 -12.25613,0.892813 -18.724504,2.469673 -4.232322,1.031769 -5.216382,1.154284 -6.287501,0.77482 -1.079157,-0.382327 -2.139667,-1.336631 -2.663432,-2.395902 -1.08456,-2.193422 -0.206991,-5.050171 1.893511,-6.165422 2.102176,-1.11612 11.857491,-3.08126 18.893564,-3.805756 1.565169,-0.161307 4.039431,-0.293721 6.526016,-0.370904 z"
       style="display:inline;fill:#ffffff;fill-rule:evenodd;stroke-width:2689.36;paint-order:stroke fill markers"
       id="path1-5"
       sodipodi:nodetypes="ssssssscsccscsscssscssscsssscccsccssscsssscsssssscss" /></g></svg>
