<?xml version="1.0" encoding="UTF-8" standalone="no"?>
<!-- Created with Inkscape (http://www.inkscape.org/) -->

<svg
   width="128"
   height="128"
   viewBox="0 0 128 128"
   version="1.1"
   id="svg1"
   inkscape:version="1.3.2 (091e20e, 2023-11-25, custom)"
   sodipodi:docname="SpotifyIcon_2.svg"
   inkscape:export-filename="SpotifyIcon_2.png"
   inkscape:export-xdpi="96"
   inkscape:export-ydpi="96"
   xml:space="preserve"
   xmlns:inkscape="http://www.inkscape.org/namespaces/inkscape"
   xmlns:sodipodi="http://sodipodi.sourceforge.net/DTD/sodipodi-0.dtd"
   xmlns="http://www.w3.org/2000/svg"
   xmlns:svg="http://www.w3.org/2000/svg"><sodipodi:namedview
     id="namedview1"
     pagecolor="#3f3f3f"
     bordercolor="#000000"
     borderopacity="0.25"
     inkscape:showpageshadow="2"
     inkscape:pageopacity="0.0"
     inkscape:pagecheckerboard="0"
     inkscape:deskcolor="#818181"
     inkscape:document-units="px"
     inkscape:zoom="2"
     inkscape:cx="102.75"
     inkscape:cy="94.25"
     inkscape:window-width="1920"
     inkscape:window-height="1009"
     inkscape:window-x="1072"
     inkscape:window-y="457"
     inkscape:window-maximized="1"
     inkscape:current-layer="layer1"
     showgrid="true"><inkscape:grid
       id="grid3"
       units="px"
       originx="0"
       originy="0"
       spacingx="1"
       spacingy="1"
       empcolor="#0099e5"
       empopacity="0.30196078"
       color="#0099e5"
       opacity="0.14901961"
       empspacing="5"
       dotted="false"
       gridanglex="30"
       gridanglez="30"
       visible="true" /></sodipodi:namedview><defs
     id="defs1" /><g
     inkscape:label="Layer 1"
     inkscape:groupmode="layer"
     id="layer1"><path
       id="path4-2-7"
       style="display:inline;fill:#ffffff;fill-rule:evenodd;stroke-width:2413.09;paint-order:stroke fill markers"
       d="M 64 3.671875 C 30.681593 3.671455 3.671455 30.681589 3.671875 64 C 3.671445 97.318412 30.681593 124.32854 64 124.32812 C 97.318417 124.32854 124.32856 97.318412 124.32812 64 C 124.32854 30.681589 97.318417 3.671455 64 3.671875 z M 55.210938 39.607422 C 56.640344 39.59245 57.84066 39.599018 58.576172 39.634766 C 68.760612 40.12977 77.998509 41.667505 87.019531 44.371094 C 93.05723 46.180588 97.789222 47.983451 103.16406 50.521484 C 106.12048 51.917514 106.80883 52.440681 107.5332 53.835938 C 108.17997 55.081685 108.38148 56.067368 108.22266 57.208984 C 108.04659 58.474627 107.55955 59.696865 106.61719 60.525391 C 105.52766 61.483315 104.28865 62.260127 102.72266 62.296875 C 101.90044 62.316115 100.73307 61.87841 98.308594 60.753906 C 85.955107 55.024215 73.255174 51.884451 59.244141 51.095703 C 55.892546 50.907065 46.499372 51.160047 43.318359 51.523438 C 38.975175 52.019573 35.029615 52.673766 31.210938 53.53125 C 28.965573 54.035448 28.455387 54.079303 27.513672 53.853516 C 25.243896 53.30933 23.602992 51.598554 23.130859 49.28125 C 22.676476 47.051073 23.949165 44.369626 25.984375 43.275391 C 27.565281 42.425418 35.275982 40.957629 42.455078 40.136719 C 43.861411 39.97573 47.156285 39.811785 50.466797 39.708984 C 52.122053 39.657583 53.781531 39.622394 55.210938 39.607422 z M 54.488281 60.53125 C 55.522868 60.520869 56.428514 60.524804 57.078125 60.548828 C 66.101087 60.882494 74.439808 62.308935 82.902344 64.96875 C 87.196985 66.318574 90.509582 67.625781 95.054688 69.759766 C 98.724792 71.482925 99.576883 72.255865 100 74.248047 C 100.70397 77.562589 97.460199 80.183605 94.830078 79.677734 C 94.57168 79.619784 92.940763 78.908861 91.205078 78.097656 C 87.665736 76.44347 85.184333 75.43376 81.878906 74.310547 C 74.938715 71.952188 67.451939 70.465432 59.939453 69.951172 C 56.799157 69.736203 52.037103 69.701163 49.464844 69.873047 C 43.473807 70.273369 39.857878 70.801056 34.134766 72.109375 L 31.636719 72.679688 L 30.763672 72.476562 C 27.914253 71.81773 26.365024 68.873086 27.466797 66.205078 C 27.825833 65.33567 28.674251 64.361201 29.451172 63.925781 C 30.913315 63.106316 39.258221 61.509356 45.148438 60.923828 C 46.462359 60.793373 48.796071 60.677066 51.125 60.603516 C 52.289464 60.566746 53.453694 60.541631 54.488281 60.53125 z M 54.353516 79.253906 C 55.204084 79.248414 55.971735 79.255957 56.576172 79.279297 C 66.910429 79.678288 76.545193 81.904849 85.808594 86.033203 C 88.406621 87.191045 90.961391 88.540593 91.523438 89.052734 C 92.954387 90.356624 93.104482 92.372431 91.882812 93.878906 C 91.599446 94.228339 91.134281 94.603673 90.779297 94.769531 C 89.422371 95.403515 88.681849 95.319812 86.792969 94.314453 C 81.794501 91.653976 75.468809 89.344024 69.65625 88.056641 C 63.469381 86.686357 58.301669 86.204826 51.912109 86.404297 C 46.547128 86.571783 42.74969 87.071169 37.914062 88.25 C 34.750064 89.021333 34.013638 89.113764 33.212891 88.830078 C 32.406134 88.544262 31.614213 87.830949 31.222656 87.039062 C 30.411861 85.399299 31.066426 83.263424 32.636719 82.429688 C 34.208263 81.595296 41.501692 80.125607 46.761719 79.583984 C 47.931808 79.463394 49.781704 79.364341 51.640625 79.306641 C 52.570085 79.277791 53.502947 79.259399 54.353516 79.253906 z " /></g></svg>
