<?xml version="1.0" encoding="UTF-8" standalone="no"?>
<!-- Created with Inkscape (http://www.inkscape.org/) -->

<svg
   width="128"
   height="128"
   viewBox="0 0 128 128"
   version="1.1"
   id="svg1"
   inkscape:version="1.3.2 (091e20e, 2023-11-25, custom)"
   sodipodi:docname="YoutubeIcon_1.svg"
   inkscape:export-filename="YoutubeIcon_1.png"
   inkscape:export-xdpi="96"
   inkscape:export-ydpi="96"
   xml:space="preserve"
   xmlns:inkscape="http://www.inkscape.org/namespaces/inkscape"
   xmlns:sodipodi="http://sodipodi.sourceforge.net/DTD/sodipodi-0.dtd"
   xmlns="http://www.w3.org/2000/svg"
   xmlns:svg="http://www.w3.org/2000/svg"><sodipodi:namedview
     id="namedview1"
     pagecolor="#3f3f3f"
     bordercolor="#000000"
     borderopacity="0.25"
     inkscape:showpageshadow="2"
     inkscape:pageopacity="0.0"
     inkscape:pagecheckerboard="0"
     inkscape:deskcolor="#818181"
     inkscape:document-units="px"
     inkscape:zoom="2.3835392"
     inkscape:cx="53.07234"
     inkscape:cy="30.416954"
     inkscape:window-width="1920"
     inkscape:window-height="1009"
     inkscape:window-x="1072"
     inkscape:window-y="457"
     inkscape:window-maximized="1"
     inkscape:current-layer="svg1" /><defs
     id="defs1" /><path
     style="fill:#ffffff;stroke-width:0.434437"
     d="M 51.19054,105.42161 C 34.388069,105.09746 22.699731,104.28673 17.934838,103.11489 11.943556,101.64144 7.8343721,97.091019 6.5028535,90.45539 3.6578316,76.277144 4.0646213,44.573317 7.2197133,34.585686 8.7006739,29.897619 13.248648,25.645105 17.880186,24.617784 c 11.770077,-2.610725 65.80714,-3.102019 86.509964,-0.786533 11.27484,1.261021 15.68087,5.144118 17.42715,15.358764 2.53718,14.84086 1.94122,44.638939 -1.08442,54.221659 -1.81463,5.747235 -6.642,9.383416 -13.78813,10.385786 -6.59569,0.92515 -33.872466,2.03683 -44.937683,1.83146 -1.021838,-0.019 -5.889276,-0.11225 -10.816527,-0.20731 z M 73.892236,69.209306 c 5.000063,-2.873916 9.021913,-5.291559 8.937436,-5.372537 -0.184474,-0.176837 -30.48436,-17.618828 -30.607075,-17.618828 -0.04706,0 -0.08557,7.988818 -0.08557,17.752928 v 17.752939 l 6.33209,-3.644593 c 3.482649,-2.004533 10.423046,-5.995981 15.423108,-8.869909 z"
     id="path1" /></svg>
